<svg width="120" height="20" fill="none" xmlns="http://www.w3.org/2000/svg"><path d="M10 0l2.245 6.91h7.266l-5.878 4.27 2.245 6.91L10 13.82l-5.878 4.27 2.245-6.91L.49 6.91h7.266L10 0zm25 0l2.245 6.91h7.266l-5.878 4.27 2.245 6.91L35 13.82l-5.878 4.27 2.245-6.91-5.878-4.27h7.266L35 0zm25 0l2.245 6.91h7.266l-5.878 4.27 2.245 6.91L60 13.82l-5.878 4.27 2.245-6.91-5.878-4.27h7.266L60 0zm25 0l2.245 6.91h7.266l-5.878 4.27 2.245 6.91L85 13.82l-5.878 4.27 2.245-6.91-5.878-4.27h7.266L85 0zm25 0l2.245 6.91h7.266l-5.878 4.27 2.245 6.91L110 13.82l-5.878 4.27 2.245-6.91-5.878-4.27h7.266L110 0z" fill="#E0B98D"/></svg>