<svg width="114" height="20" fill="none" xmlns="http://www.w3.org/2000/svg"><path d="M9.602 0l2.13 6.91h6.896l-5.578 4.27 2.13 6.91-5.578-4.27-5.579 4.27 2.131-6.91L.576 6.91H7.47L9.601 0zm23.727 0l2.13 6.91h6.896l-5.579 4.27 2.131 6.91-5.578-4.27-5.579 4.27 2.131-6.91-5.579-4.27h6.896L33.328 0zm23.727 0l2.13 6.91h6.896l-5.579 4.27 2.131 6.91-5.578-4.27-5.579 4.27 2.13-6.91-5.578-4.27h6.896L57.055 0zm23.726 0l2.131 6.91h6.896l-5.579 4.27 2.13 6.91-5.578-4.27-5.578 4.27 2.13-6.91-5.578-4.27h6.896L80.782 0zm23.727 0l2.131 6.91h6.895l-5.578 4.27 2.131 6.91-5.579-4.27-5.578 4.27 2.131-6.91-5.579-4.27h6.895L104.509 0z" fill="#797979"/></svg>