<svg width="70" height="70" fill="none" xmlns="http://www.w3.org/2000/svg"><path stroke="#F5F5F5" stroke-width="2" stroke-dasharray="4 4" d="M1 1h68v68H1z"/><g clip-path="url(#clip0)" fill="#F5F5F5"><path d="M49.002 26.873a3.225 3.225 0 00-2.367-.998h-4.734v-.058c0-.712-.285-1.397-.77-1.853a2.61 2.61 0 00-1.853-.77h-8.556a2.627 2.627 0 00-2.652 2.623v.058h-4.705c-.941 0-1.768.37-2.367.998A3.39 3.39 0 0020 29.24v14.2c0 .941.37 1.768.998 2.367a3.39 3.39 0 002.367.998h23.27c.941 0 1.768-.37 2.367-.998A3.39 3.39 0 0050 43.441V29.24c0-.941-.37-1.768-.998-2.367zm-.485 16.568h-.028c0 .513-.2.97-.542 1.312a1.83 1.83 0 01-1.312.542h-23.27c-.513 0-.97-.2-1.312-.542a1.83 1.83 0 01-.542-1.312V29.24c0-.514.2-.97.542-1.312a1.83 1.83 0 011.312-.542h5.504c.428 0 .77-.342.77-.77v-.827c0-.314.114-.599.314-.799.2-.2.484-.313.798-.313h8.527c.313 0 .598.114.798.314.2.2.314.484.314.798v.827c0 .428.342.77.77.77h5.504c.513 0 .97.2 1.311.542.343.342.542.798.542 1.312v14.2z"/><path d="M35 29.325a7.03 7.03 0 00-4.962 2.053 6.96 6.96 0 00-2.053 4.962c0 1.94.798 3.708 2.053 4.962A6.96 6.96 0 0035 43.356c1.94 0 3.707-.799 4.962-2.054a6.959 6.959 0 002.053-4.962 7.027 7.027 0 00-2.053-4.962A7.028 7.028 0 0035 29.325zm3.878 10.922A5.573 5.573 0 0135 41.844a5.573 5.573 0 01-3.878-1.597 5.452 5.452 0 01-1.597-3.878 5.57 5.57 0 011.597-3.878A5.452 5.452 0 0135 30.894a5.57 5.57 0 013.878 1.597 5.452 5.452 0 011.597 3.878c.029 1.511-.599 2.88-1.597 3.878zm6.274-8.156a1.397 1.397 0 100-2.794 1.397 1.397 0 000 2.794z"/></g><defs><clipPath id="clip0"><path fill="#fff" transform="translate(20 20)" d="M0 0h30v30H0z"/></clipPath></defs></svg>