<svg width="35" height="35" fill="none" xmlns="http://www.w3.org/2000/svg"><path fill="#E0B98D" d="M4.9 4.9h25.9v24.5H4.9z"/><path d="M32.476 0H2.524A2.524 2.524 0 000 2.524v29.952A2.524 2.524 0 002.524 35h29.952A2.524 2.524 0 0035 32.476V2.524A2.524 2.524 0 0032.476 0zm-4.31 21.643c-.049 1.07-.159 2.188-.407 2.827a5.138 5.138 0 01-2.939 2.94c-.639.247-2.05.417-3.12.466-1.072.05-1.414.06-4.143.06-2.73 0-3.546-.01-4.618-.06-1.07-.049-1.8-.219-2.439-.467a4.923 4.923 0 01-1.78-1.159 4.924 4.924 0 01-1.159-1.78c-.248-.639-.418-1.758-.467-2.827-.05-1.072-.06-1.414-.06-4.143 0-2.73.01-3.599.06-4.67.049-1.07.218-1.8.467-2.44a4.923 4.923 0 011.16-1.78A4.922 4.922 0 0110.5 7.451c.64-.248 1.37-.418 2.44-.467 1.07-.049 1.831 0 4.56 0 2.729 0 3.071.012 4.143.061 1.07.049 2.538.158 3.177.406.67.252 1.278.648 1.78 1.16a4.912 4.912 0 011.159 1.78c.248.638.418 1.369.467 2.438.05 1.072 0 1.942 0 4.671s-.011 3.071-.06 4.143z" fill="#E0B98D"/><path d="M28.15 9.443a4.232 4.232 0 00-1.022-1.571 4.23 4.23 0 00-1.57-1.022c-.482-.187-1.206-.41-2.537-.47-1.441-.066-1.873-.08-5.521-.08-3.648 0-4.08.014-5.52.08-1.333.06-2.056.283-2.537.47a4.227 4.227 0 00-1.57 1.022c-.455.44-.804.977-1.023 1.57-.187.482-.41 1.206-.47 2.538-.066 1.44-.08 1.872-.08 5.52 0 3.648.014 4.08.08 5.52.06 1.333.283 2.056.47 2.537a4.24 4.24 0 001.022 1.571c.44.454.977.803 1.57 1.022.482.187 1.205.41 2.537.47 1.44.066 1.873.08 5.52.08 3.65 0 4.081-.014 5.521-.08 1.332-.06 2.056-.283 2.537-.47a4.524 4.524 0 002.593-2.593c.187-.481.41-1.204.47-2.536.066-1.441.08-1.873.08-5.52 0-3.649-.014-4.08-.08-5.521-.06-1.332-.283-2.056-.47-2.537zM17.5 24.515a7.015 7.015 0 110-14.03 7.015 7.015 0 010 14.03zm6.72-12.535a1.64 1.64 0 110-3.28 1.64 1.64 0 010 3.28z" fill="#1D1B1B"/><path d="M21.7 17.5a4.2 4.2 0 11-8.4 0 4.2 4.2 0 018.4 0z" fill="#1D1B1B"/></svg>