<svg width="70" height="70" fill="none" xmlns="http://www.w3.org/2000/svg"><path d="M35 0C15.67 0 0 15.67 0 35s15.67 35 35 35 35-15.67 35-35C69.978 15.68 54.32.022 35 0zm0 67.742C16.917 67.742 2.258 53.082 2.258 35 2.258 16.917 16.918 2.258 35 2.258c18.083 0 32.742 14.66 32.742 32.742C67.722 53.075 53.075 67.722 35 67.742z" fill="#E0B98D"/><path d="M52.266 22.347L29.355 45.258l-11.621-11.62a1.129 1.129 0 00-1.597 1.596l12.42 12.419c.44.44 1.155.44 1.596 0l23.71-23.71a1.129 1.129 0 00-1.597-1.596z" fill="#E0B98D"/></svg>