<svg width="24" height="24" fill="none" xmlns="http://www.w3.org/2000/svg"><g clip-path="url(#clip0)"><path d="M20.937 1.748a5.985 5.985 0 00-8.455 0L3.58 10.65a.703.703 0 10.995.995l8.902-8.902c1.728-1.727 4.738-1.727 6.466 0a4.577 4.577 0 010 6.465l-12.43 12.57c-1.064 1.064-2.916 1.064-3.98 0a2.816 2.816 0 010-3.978L15.467 5.726a1.08 1.08 0 011.491 0 1.057 1.057 0 010 1.493L5.523 18.795c-.237.237-.237.757 0 .994.275.275.72.275.995 0L17.953 8.213c.96-.96.96-2.52 0-3.481-.93-.93-2.552-.929-3.48 0L2.538 16.806c-1.633 1.632-1.633 4.334 0 5.967A4.184 4.184 0 005.523 24c1.127 0 2.187-.43 2.984-1.227l12.43-12.57a5.984 5.984 0 000-8.455z" fill="#F5F5F5"/></g><defs><clipPath id="clip0"><path fill="#fff" d="M0 0h24v24H0z"/></clipPath></defs></svg>