<svg width="35" height="35" fill="none" xmlns="http://www.w3.org/2000/svg"><path d="M33.138 0H1.862A1.862 1.862 0 000 1.862v31.276C0 34.166.833 35 1.862 35h31.276A1.862 1.862 0 0035 33.138V1.862A1.862 1.862 0 0033.138 0zm-5.261 19.713c.954.93 1.962 1.807 2.82 2.836.378.454.736.923 1.008 1.452.387.753.037 1.581-.638 1.625h-4.191c-1.082.088-1.944-.347-2.67-1.087-.58-.59-1.118-1.22-1.676-1.83a3.954 3.954 0 00-.754-.672c-.571-.371-1.067-.258-1.396.338-.333.607-.41 1.28-.44 1.957-.047.988-.345 1.246-1.337 1.292-2.118.1-4.13-.222-5.997-1.29-1.65-.941-2.925-2.272-4.036-3.777-2.165-2.935-3.824-6.157-5.313-9.471-.336-.747-.09-1.146.732-1.162 1.369-.027 2.737-.023 4.104-.001.557.008.925.327 1.139.852.739 1.819 1.646 3.55 2.782 5.155.302.427.611.853 1.05 1.155.486.334.856.224 1.085-.318.147-.346.21-.713.241-1.082.109-1.265.122-2.53-.066-3.789-.117-.788-.56-1.297-1.346-1.446-.4-.075-.342-.224-.147-.452.337-.395.655-.64 1.286-.64h4.737c.747.146.913.48 1.015 1.232l.004 5.263c-.008.29.145 1.153.668 1.344.418.138.696-.197.946-.463 1.135-1.205 1.944-2.628 2.669-4.1.319-.648.595-1.32.863-1.994.199-.497.51-.742 1.07-.734l4.56.005c.135 0 .272.002.405.024.768.132.978.463.74 1.213-.373 1.177-1.1 2.159-1.813 3.142-.76 1.052-1.573 2.07-2.328 3.127-.691.97-.636 1.456.224 2.296z" fill="#E0B98D"/></svg>