<svg width="35" height="35" fill="none" xmlns="http://www.w3.org/2000/svg"><g clip-path="url(#clip0)" fill="#F5F5F5"><path d="M15.32 20.779l5.693-3.279-5.693-3.278v6.557z"/><path d="M32.476 0H2.524A2.524 2.524 0 000 2.524v29.952A2.524 2.524 0 002.524 35h29.952A2.524 2.524 0 0035 32.476V2.524A2.524 2.524 0 0032.476 0zm-4.041 17.518s0 3.549-.45 5.26a2.74 2.74 0 01-1.928 1.928c-1.711.45-8.557.45-8.557.45s-6.828 0-8.557-.468a2.74 2.74 0 01-1.928-1.928c-.45-1.693-.45-5.26-.45-5.26s0-3.549.45-5.26a2.796 2.796 0 011.928-1.946c1.711-.45 8.557-.45 8.557-.45s6.846 0 8.557.468a2.74 2.74 0 011.928 1.928c.468 1.711.45 5.278.45 5.278z"/></g><defs><clipPath id="clip0"><path fill="#fff" d="M0 0h35v35H0z"/></clipPath></defs></svg>