<svg width="21" height="21" viewBox="0 0 21 21" fill="none" xmlns="http://www.w3.org/2000/svg">
<path d="M19.3421 13.8269C18.0467 13.8269 16.7779 13.6246 15.5743 13.2267C14.9874 13.0244 14.322 13.1803 13.9352 13.5738L11.5511 15.3742C8.81669 13.9153 7.06595 12.1656 5.62472 9.44892L7.37655 7.12123C7.81755 6.67915 7.97562 6.03474 7.78662 5.43018C7.38759 4.221 7.18423 2.95105 7.18423 1.6579C7.18423 0.743825 6.44041 0 5.52634 0H1.6579C0.743825 0 0 0.743825 0 1.6579C0 12.3226 8.67743 21 19.3421 21C20.2562 21 21 20.2562 21 19.3421V15.4847C21 14.5707 20.2562 13.8269 19.3421 13.8269ZM19.8948 19.3421C19.8948 19.6472 19.6461 19.8948 19.3421 19.8948C9.28639 19.8948 1.10525 11.7136 1.10525 1.6579C1.10525 1.35284 1.35393 1.10525 1.6579 1.10525H5.52634C5.8303 1.10525 6.07899 1.35284 6.07899 1.6579C6.07899 3.06934 6.30006 4.45534 6.73329 5.76948C6.79737 5.97615 6.74546 6.1895 6.5432 6.39948L4.5316 9.06315C4.40451 9.23225 4.38462 9.45882 4.48077 9.64673C6.11986 12.8664 8.11048 14.8581 11.3533 16.5193C11.5401 16.6165 11.7689 16.5966 11.938 16.4685L14.6592 14.406C14.8073 14.2601 15.025 14.2093 15.2218 14.2745C16.5437 14.7111 17.9297 14.9321 19.3422 14.9321C19.6462 14.9321 19.8949 15.1797 19.8949 15.4847V19.3421H19.8948Z" fill="#F5F5F5"/>
</svg>
