<svg width="21" height="21" fill="none" xmlns="http://www.w3.org/2000/svg"><path d="M19.342 13.827c-1.295 0-2.564-.202-3.768-.6-.587-.203-1.252-.047-1.639.347l-2.384 1.8c-2.734-1.459-4.485-3.208-5.926-5.925L7.377 7.12c.44-.442.599-1.086.41-1.69a12.02 12.02 0 01-.603-3.773A1.66 1.66 0 005.526 0H1.658A1.66 1.66 0 000 1.658C0 12.323 8.677 21 19.342 21A1.66 1.66 0 0021 19.342v-3.857a1.66 1.66 0 00-1.658-1.658zm.553 5.515a.554.554 0 01-.553.553c-10.056 0-18.237-8.181-18.237-18.237 0-.305.249-.553.553-.553h3.868c.304 0 .553.248.553.553 0 1.411.221 2.797.654 4.111.064.207.012.42-.19.63L4.532 9.063a.553.553 0 00-.051.584c1.639 3.22 3.63 5.211 6.872 6.872a.55.55 0 00.585-.05l2.721-2.063a.554.554 0 01.563-.132c1.322.437 2.708.658 4.12.658.304 0 .553.248.553.553v3.857z" fill="#F5F5F5"/></svg>